<?xml version="1.0" standalone="no"?>
<svg xmlns="http://www.w3.org/2000/svg" width="25cm" height="25cm" viewBox="-0.1 -0.1 25.200000 25.200000">
<g style="stroke-width:.1; stroke:black; stroke-linejoin:miter; stroke-linecap:butt; "> <polyline points="0,0 1,0"/>
 <polyline points="0,0 0,1"/>
 <polyline points="1,0 1,1"/>
 <polyline points="1,0 2,0"/>
 <polyline points="1,0 1,1"/>
 <polyline points="2,0 3,0"/>
 <polyline points="2,1 3,1"/>
 <polyline points="3,0 3,1"/>
 <polyline points="3,0 4,0"/>
 <polyline points="3,1 4,1"/>
 <polyline points="3,0 3,1"/>
 <polyline points="4,0 5,0"/>
 <polyline points="4,1 5,1"/>
 <polyline points="5,0 6,0"/>
 <polyline points="5,1 6,1"/>
 <polyline points="6,0 7,0"/>
 <polyline points="7,0 7,1"/>
 <polyline points="7,0 8,0"/>
 <polyline points="7,0 7,1"/>
 <polyline points="8,0 8,1"/>
 <polyline points="8,0 9,0"/>
 <polyline points="8,1 9,1"/>
 <polyline points="8,0 8,1"/>
 <polyline points="9,0 10,0"/>
 <polyline points="10,0 11,0"/>
 <polyline points="10,1 11,1"/>
 <polyline points="11,0 12,0"/>
 <polyline points="12,0 12,1"/>
 <polyline points="12,0 13,0"/>
 <polyline points="12,0 12,1"/>
 <polyline points="13,0 14,0"/>
 <polyline points="13,1 14,1"/>
 <polyline points="14,0 14,1"/>
 <polyline points="14,0 15,0"/>
 <polyline points="14,0 14,1"/>
 <polyline points="15,0 16,0"/>
 <polyline points="15,1 16,1"/>
 <polyline points="16,0 17,0"/>
 <polyline points="16,1 17,1"/>
 <polyline points="17,0 18,0"/>
 <polyline points="17,1 18,1"/>
 <polyline points="18,0 19,0"/>
 <polyline points="18,1 19,1"/>
 <polyline points="19,0 19,1"/>
 <polyline points="19,0 20,0"/>
 <polyline points="19,0 19,1"/>
 <polyline points="20,0 21,0"/>
 <polyline points="20,1 21,1"/>
 <polyline points="21,0 21,1"/>
 <polyline points="21,0 22,0"/>
 <polyline points="21,1 22,1"/>
 <polyline points="21,0 21,1"/>
 <polyline points="22,0 23,0"/>
 <polyline points="23,0 23,1"/>
 <polyline points="23,0 24,0"/>
 <polyline points="23,0 23,1"/>
 <polyline points="24,0 25,0"/>
 <polyline points="24,1 25,1"/>
 <polyline points="25,0 25,1"/>
 <polyline points="0,1 0,2"/>
 <polyline points="2,1 3,1"/>
 <polyline points="3,1 4,1"/>
 <polyline points="4,1 4,2"/>
 <polyline points="4,1 5,1"/>
 <polyline points="4,1 4,2"/>
 <polyline points="5,1 5,2"/>
 <polyline points="5,1 6,1"/>
 <polyline points="5,1 5,2"/>
 <polyline points="6,1 6,2"/>
 <polyline points="6,1 6,2"/>
 <polyline points="7,1 7,2"/>
 <polyline points="7,1 7,2"/>
 <polyline points="8,1 9,1"/>
 <polyline points="8,2 9,2"/>
 <polyline points="10,1 10,2"/>
 <polyline points="10,1 11,1"/>
 <polyline points="10,2 11,2"/>
 <polyline points="10,1 10,2"/>
 <polyline points="11,2 12,2"/>
 <polyline points="13,1 13,2"/>
 <polyline points="13,1 14,1"/>
 <polyline points="13,2 14,2"/>
 <polyline points="13,1 13,2"/>
 <polyline points="14,2 15,2"/>
 <polyline points="15,1 16,1"/>
 <polyline points="16,1 17,1"/>
 <polyline points="17,1 18,1"/>
 <polyline points="18,1 18,2"/>
 <polyline points="18,1 19,1"/>
 <polyline points="18,1 18,2"/>
 <polyline points="19,2 20,2"/>
 <polyline points="20,1 21,1"/>
 <polyline points="20,2 21,2"/>
 <polyline points="21,1 21,2"/>
 <polyline points="21,1 22,1"/>
 <polyline points="21,2 22,2"/>
 <polyline points="21,1 21,2"/>
 <polyline points="23,2 24,2"/>
 <polyline points="24,1 25,1"/>
 <polyline points="25,1 25,2"/>
 <polyline points="0,2 0,3"/>
 <polyline points="1,2 1,3"/>
 <polyline points="1,3 2,3"/>
 <polyline points="1,2 1,3"/>
 <polyline points="2,2 2,3"/>
 <polyline points="2,2 2,3"/>
 <polyline points="3,2 3,3"/>
 <polyline points="3,3 4,3"/>
 <polyline points="3,2 3,3"/>
 <polyline points="5,3 6,3"/>
 <polyline points="7,3 8,3"/>
 <polyline points="8,2 9,2"/>
 <polyline points="8,3 9,3"/>
 <polyline points="9,2 9,3"/>
 <polyline points="9,2 9,3"/>
 <polyline points="10,2 10,3"/>
 <polyline points="10,2 11,2"/>
 <polyline points="10,3 11,3"/>
 <polyline points="10,2 10,3"/>
 <polyline points="11,2 12,2"/>
 <polyline points="12,2 12,3"/>
 <polyline points="12,3 13,3"/>
 <polyline points="12,2 12,3"/>
 <polyline points="13,2 14,2"/>
 <polyline points="13,3 14,3"/>
 <polyline points="14,2 15,2"/>
 <polyline points="14,3 15,3"/>
 <polyline points="15,3 16,3"/>
 <polyline points="16,2 16,3"/>
 <polyline points="16,2 16,3"/>
 <polyline points="17,2 17,3"/>
 <polyline points="17,3 18,3"/>
 <polyline points="17,2 17,3"/>
 <polyline points="19,2 20,2"/>
 <polyline points="19,3 20,3"/>
 <polyline points="20,2 21,2"/>
 <polyline points="21,2 21,3"/>
 <polyline points="21,2 22,2"/>
 <polyline points="21,2 21,3"/>
 <polyline points="22,2 22,3"/>
 <polyline points="22,2 22,3"/>
 <polyline points="23,2 23,3"/>
 <polyline points="23,2 24,2"/>
 <polyline points="23,3 24,3"/>
 <polyline points="23,2 23,3"/>
 <polyline points="25,2 25,3"/>
 <polyline points="0,4 1,4"/>
 <polyline points="0,3 0,4"/>
 <polyline points="1,3 2,3"/>
 <polyline points="2,3 2,4"/>
 <polyline points="2,3 2,4"/>
 <polyline points="3,3 3,4"/>
 <polyline points="3,3 4,3"/>
 <polyline points="3,3 3,4"/>
 <polyline points="5,3 6,3"/>
 <polyline points="5,4 6,4"/>
 <polyline points="6,3 6,4"/>
 <polyline points="6,4 7,4"/>
 <polyline points="6,3 6,4"/>
 <polyline points="7,3 7,4"/>
 <polyline points="7,3 8,3"/>
 <polyline points="7,3 7,4"/>
 <polyline points="8,3 9,3"/>
 <polyline points="8,4 9,4"/>
 <polyline points="10,3 11,3"/>
 <polyline points="10,4 11,4"/>
 <polyline points="11,4 12,4"/>
 <polyline points="12,3 13,3"/>
 <polyline points="13,3 14,3"/>
 <polyline points="13,4 14,4"/>
 <polyline points="14,3 15,3"/>
 <polyline points="14,4 15,4"/>
 <polyline points="15,3 15,4"/>
 <polyline points="15,3 16,3"/>
 <polyline points="15,4 16,4"/>
 <polyline points="15,3 15,4"/>
 <polyline points="16,4 17,4"/>
 <polyline points="17,3 17,4"/>
 <polyline points="17,3 18,3"/>
 <polyline points="17,4 18,4"/>
 <polyline points="17,3 17,4"/>
 <polyline points="19,3 19,4"/>
 <polyline points="19,3 20,3"/>
 <polyline points="19,4 20,4"/>
 <polyline points="19,3 19,4"/>
 <polyline points="20,4 21,4"/>
 <polyline points="22,3 22,4"/>
 <polyline points="22,3 22,4"/>
 <polyline points="23,3 23,4"/>
 <polyline points="23,3 24,3"/>
 <polyline points="23,3 23,4"/>
 <polyline points="25,3 25,4"/>
 <polyline points="0,4 1,4"/>
 <polyline points="0,4 0,5"/>
 <polyline points="2,4 2,5"/>
 <polyline points="2,5 3,5"/>
 <polyline points="2,4 2,5"/>
 <polyline points="3,4 3,5"/>
 <polyline points="3,4 3,5"/>
 <polyline points="4,4 4,5"/>
 <polyline points="4,4 4,5"/>
 <polyline points="5,4 6,4"/>
 <polyline points="5,5 6,5"/>
 <polyline points="6,4 7,4"/>
 <polyline points="6,5 7,5"/>
 <polyline points="7,4 7,5"/>
 <polyline points="7,4 7,5"/>
 <polyline points="8,4 9,4"/>
 <polyline points="8,5 9,5"/>
 <polyline points="9,4 9,5"/>
 <polyline points="9,4 9,5"/>
 <polyline points="10,4 10,5"/>
 <polyline points="10,4 11,4"/>
 <polyline points="10,5 11,5"/>
 <polyline points="10,4 10,5"/>
 <polyline points="11,4 12,4"/>
 <polyline points="12,5 13,5"/>
 <polyline points="13,4 13,5"/>
 <polyline points="13,4 14,4"/>
 <polyline points="13,4 13,5"/>
 <polyline points="14,4 15,4"/>
 <polyline points="14,5 15,5"/>
 <polyline points="15,4 16,4"/>
 <polyline points="15,5 16,5"/>
 <polyline points="16,4 17,4"/>
 <polyline points="17,4 18,4"/>
 <polyline points="17,5 18,5"/>
 <polyline points="18,4 18,5"/>
 <polyline points="18,4 18,5"/>
 <polyline points="19,4 19,5"/>
 <polyline points="19,4 20,4"/>
 <polyline points="19,5 20,5"/>
 <polyline points="19,4 19,5"/>
 <polyline points="20,4 21,4"/>
 <polyline points="20,5 21,5"/>
 <polyline points="22,5 23,5"/>
 <polyline points="23,4 23,5"/>
 <polyline points="23,4 23,5"/>
 <polyline points="24,4 24,5"/>
 <polyline points="24,5 25,5"/>
 <polyline points="24,4 24,5"/>
 <polyline points="25,4 25,5"/>
 <polyline points="0,5 0,6"/>
 <polyline points="1,5 1,6"/>
 <polyline points="1,6 2,6"/>
 <polyline points="1,5 1,6"/>
 <polyline points="2,5 3,5"/>
 <polyline points="2,6 3,6"/>
 <polyline points="3,5 3,6"/>
 <polyline points="3,6 4,6"/>
 <polyline points="3,5 3,6"/>
 <polyline points="4,5 4,6"/>
 <polyline points="4,5 4,6"/>
 <polyline points="5,5 6,5"/>
 <polyline points="5,6 6,6"/>
 <polyline points="6,5 7,5"/>
 <polyline points="6,6 7,6"/>
 <polyline points="7,5 7,6"/>
 <polyline points="7,5 7,6"/>
 <polyline points="8,5 8,6"/>
 <polyline points="8,5 9,5"/>
 <polyline points="8,6 9,6"/>
 <polyline points="8,5 8,6"/>
 <polyline points="9,6 10,6"/>
 <polyline points="10,5 10,6"/>
 <polyline points="10,5 11,5"/>
 <polyline points="10,5 10,6"/>
 <polyline points="11,5 11,6"/>
 <polyline points="11,6 12,6"/>
 <polyline points="11,5 11,6"/>
 <polyline points="12,5 13,5"/>
 <polyline points="13,5 13,6"/>
 <polyline points="13,6 14,6"/>
 <polyline points="13,5 13,6"/>
 <polyline points="14,5 15,5"/>
 <polyline points="14,6 15,6"/>
 <polyline points="15,5 15,6"/>
 <polyline points="15,5 16,5"/>
 <polyline points="15,5 15,6"/>
 <polyline points="16,6 17,6"/>
 <polyline points="17,5 17,6"/>
 <polyline points="17,5 18,5"/>
 <polyline points="17,6 18,6"/>
 <polyline points="17,5 17,6"/>
 <polyline points="19,5 20,5"/>
 <polyline points="19,6 20,6"/>
 <polyline points="20,5 21,5"/>
 <polyline points="21,5 21,6"/>
 <polyline points="21,6 22,6"/>
 <polyline points="21,5 21,6"/>
 <polyline points="22,5 23,5"/>
 <polyline points="23,5 23,6"/>
 <polyline points="23,6 24,6"/>
 <polyline points="23,5 23,6"/>
 <polyline points="24,5 24,6"/>
 <polyline points="24,5 25,5"/>
 <polyline points="24,5 24,6"/>
 <polyline points="25,5 25,6"/>
 <polyline points="0,6 0,7"/>
 <polyline points="1,6 2,6"/>
 <polyline points="1,7 2,7"/>
 <polyline points="2,6 3,6"/>
 <polyline points="2,7 3,7"/>
 <polyline points="3,6 3,7"/>
 <polyline points="3,6 4,6"/>
 <polyline points="3,6 3,7"/>
 <polyline points="4,7 5,7"/>
 <polyline points="5,6 6,6"/>
 <polyline points="6,6 6,7"/>
 <polyline points="6,6 7,6"/>
 <polyline points="6,7 7,7"/>
 <polyline points="6,6 6,7"/>
 <polyline points="8,6 8,7"/>
 <polyline points="8,6 9,6"/>
 <polyline points="8,6 8,7"/>
 <polyline points="9,6 9,7"/>
 <polyline points="9,6 10,6"/>
 <polyline points="9,7 10,7"/>
 <polyline points="9,6 9,7"/>
 <polyline points="11,6 12,6"/>
 <polyline points="12,6 12,7"/>
 <polyline points="12,7 13,7"/>
 <polyline points="12,6 12,7"/>
 <polyline points="13,6 13,7"/>
 <polyline points="13,6 14,6"/>
 <polyline points="13,7 14,7"/>
 <polyline points="13,6 13,7"/>
 <polyline points="14,6 15,6"/>
 <polyline points="15,6 15,7"/>
 <polyline points="15,7 16,7"/>
 <polyline points="15,6 15,7"/>
 <polyline points="16,6 17,6"/>
 <polyline points="17,6 17,7"/>
 <polyline points="17,6 18,6"/>
 <polyline points="17,6 17,7"/>
 <polyline points="18,7 19,7"/>
 <polyline points="19,6 20,6"/>
 <polyline points="20,6 20,7"/>
 <polyline points="20,6 20,7"/>
 <polyline points="21,6 22,6"/>
 <polyline points="21,7 22,7"/>
 <polyline points="22,6 22,7"/>
 <polyline points="22,6 22,7"/>
 <polyline points="23,6 24,6"/>
 <polyline points="23,7 24,7"/>
 <polyline points="24,7 25,7"/>
 <polyline points="25,6 25,7"/>
 <polyline points="0,8 1,8"/>
 <polyline points="1,7 2,7"/>
 <polyline points="1,8 2,8"/>
 <polyline points="2,7 2,8"/>
 <polyline points="2,7 3,7"/>
 <polyline points="2,7 2,8"/>
 <polyline points="4,7 4,8"/>
 <polyline points="4,7 5,7"/>
 <polyline points="4,7 4,8"/>
 <polyline points="5,7 5,8"/>
 <polyline points="5,8 6,8"/>
 <polyline points="5,7 5,8"/>
 <polyline points="6,7 7,7"/>
 <polyline points="6,8 7,8"/>
 <polyline points="7,7 7,8"/>
 <polyline points="7,7 7,8"/>
 <polyline points="8,8 9,8"/>
 <polyline points="9,7 10,7"/>
 <polyline points="10,7 10,8"/>
 <polyline points="10,7 10,8"/>
 <polyline points="11,7 11,8"/>
 <polyline points="11,7 11,8"/>
 <polyline points="12,7 13,7"/>
 <polyline points="12,8 13,8"/>
 <polyline points="13,7 14,7"/>
 <polyline points="13,8 14,8"/>
 <polyline points="14,7 14,8"/>
 <polyline points="14,7 14,8"/>
 <polyline points="15,7 16,7"/>
 <polyline points="15,8 16,8"/>
 <polyline points="17,8 18,8"/>
 <polyline points="18,7 18,8"/>
 <polyline points="18,7 19,7"/>
 <polyline points="18,8 19,8"/>
 <polyline points="18,7 18,8"/>
 <polyline points="20,7 20,8"/>
 <polyline points="20,8 21,8"/>
 <polyline points="20,7 20,8"/>
 <polyline points="21,7 22,7"/>
 <polyline points="21,8 22,8"/>
 <polyline points="22,7 22,8"/>
 <polyline points="22,7 22,8"/>
 <polyline points="23,7 24,7"/>
 <polyline points="24,7 25,7"/>
 <polyline points="24,8 25,8"/>
 <polyline points="25,7 25,8"/>
 <polyline points="0,8 1,8"/>
 <polyline points="0,8 0,9"/>
 <polyline points="1,8 1,9"/>
 <polyline points="1,8 2,8"/>
 <polyline points="1,9 2,9"/>
 <polyline points="1,8 1,9"/>
 <polyline points="3,8 3,9"/>
 <polyline points="3,9 4,9"/>
 <polyline points="3,8 3,9"/>
 <polyline points="4,8 4,9"/>
 <polyline points="4,9 5,9"/>
 <polyline points="4,8 4,9"/>
 <polyline points="5,8 6,8"/>
 <polyline points="6,8 6,9"/>
 <polyline points="6,8 7,8"/>
 <polyline points="6,8 6,9"/>
 <polyline points="8,8 9,8"/>
 <polyline points="8,9 9,9"/>
 <polyline points="9,8 9,9"/>
 <polyline points="9,9 10,9"/>
 <polyline points="9,8 9,9"/>
 <polyline points="11,8 11,9"/>
 <polyline points="11,9 12,9"/>
 <polyline points="11,8 11,9"/>
 <polyline points="12,8 12,9"/>
 <polyline points="12,8 13,8"/>
 <polyline points="12,8 12,9"/>
 <polyline points="13,8 14,8"/>
 <polyline points="13,9 14,9"/>
 <polyline points="15,8 15,9"/>
 <polyline points="15,8 16,8"/>
 <polyline points="15,9 16,9"/>
 <polyline points="15,8 15,9"/>
 <polyline points="16,9 17,9"/>
 <polyline points="17,8 17,9"/>
 <polyline points="17,8 18,8"/>
 <polyline points="17,8 17,9"/>
 <polyline points="18,8 19,8"/>
 <polyline points="18,9 19,9"/>
 <polyline points="20,8 20,9"/>
 <polyline points="20,8 21,8"/>
 <polyline points="20,8 20,9"/>
 <polyline points="21,8 21,9"/>
 <polyline points="21,8 22,8"/>
 <polyline points="21,8 21,9"/>
 <polyline points="23,8 23,9"/>
 <polyline points="23,8 23,9"/>
 <polyline points="24,8 25,8"/>
 <polyline points="24,9 25,9"/>
 <polyline points="25,8 25,9"/>
 <polyline points="0,10 1,10"/>
 <polyline points="0,9 0,10"/>
 <polyline points="1,9 2,9"/>
 <polyline points="1,10 2,10"/>
 <polyline points="3,9 4,9"/>
 <polyline points="3,10 4,10"/>
 <polyline points="4,9 4,10"/>
 <polyline points="4,9 5,9"/>
 <polyline points="4,10 5,10"/>
 <polyline points="4,9 4,10"/>
 <polyline points="5,10 6,10"/>
 <polyline points="7,9 7,10"/>
 <polyline points="7,10 8,10"/>
 <polyline points="7,9 7,10"/>
 <polyline points="8,9 8,10"/>
 <polyline points="8,9 9,9"/>
 <polyline points="8,9 8,10"/>
 <polyline points="9,9 10,9"/>
 <polyline points="10,9 10,10"/>
 <polyline points="10,9 10,10"/>
 <polyline points="11,9 11,10"/>
 <polyline points="11,9 12,9"/>
 <polyline points="11,9 11,10"/>
 <polyline points="12,10 13,10"/>
 <polyline points="13,9 14,9"/>
 <polyline points="13,10 14,10"/>
 <polyline points="14,9 14,10"/>
 <polyline points="14,10 15,10"/>
 <polyline points="14,9 14,10"/>
 <polyline points="15,9 15,10"/>
 <polyline points="15,9 16,9"/>
 <polyline points="15,10 16,10"/>
 <polyline points="15,9 15,10"/>
 <polyline points="16,9 17,9"/>
 <polyline points="17,10 18,10"/>
 <polyline points="18,9 19,9"/>
 <polyline points="19,9 19,10"/>
 <polyline points="19,9 19,10"/>
 <polyline points="20,10 21,10"/>
 <polyline points="21,9 21,10"/>
 <polyline points="21,10 22,10"/>
 <polyline points="21,9 21,10"/>
 <polyline points="22,9 22,10"/>
 <polyline points="22,9 22,10"/>
 <polyline points="23,9 23,10"/>
 <polyline points="23,9 23,10"/>
 <polyline points="24,9 25,9"/>
 <polyline points="24,10 25,10"/>
 <polyline points="25,9 25,10"/>
 <polyline points="0,10 1,10"/>
 <polyline points="0,10 0,11"/>
 <polyline points="1,10 2,10"/>
 <polyline points="2,11 3,11"/>
 <polyline points="3,10 4,10"/>
 <polyline points="3,11 4,11"/>
 <polyline points="4,10 4,11"/>
 <polyline points="4,10 5,10"/>
 <polyline points="4,10 4,11"/>
 <polyline points="5,10 5,11"/>
 <polyline points="5,10 6,10"/>
 <polyline points="5,10 5,11"/>
 <polyline points="7,10 8,10"/>
 <polyline points="7,11 8,11"/>
 <polyline points="8,10 8,11"/>
 <polyline points="8,10 8,11"/>
 <polyline points="9,10 9,11"/>
 <polyline points="9,10 9,11"/>
 <polyline points="10,10 10,11"/>
 <polyline points="10,10 10,11"/>
 <polyline points="11,10 11,11"/>
 <polyline points="11,10 11,11"/>
 <polyline points="12,10 13,10"/>
 <polyline points="12,11 13,11"/>
 <polyline points="13,10 14,10"/>
 <polyline points="13,11 14,11"/>
 <polyline points="14,10 14,11"/>
 <polyline points="14,10 15,10"/>
 <polyline points="14,11 15,11"/>
 <polyline points="14,10 14,11"/>
 <polyline points="15,10 16,10"/>
 <polyline points="15,11 16,11"/>
 <polyline points="17,10 18,10"/>
 <polyline points="17,11 18,11"/>
 <polyline points="18,10 18,11"/>
 <polyline points="18,11 19,11"/>
 <polyline points="18,10 18,11"/>
 <polyline points="19,10 19,11"/>
 <polyline points="19,11 20,11"/>
 <polyline points="19,10 19,11"/>
 <polyline points="20,10 21,10"/>
 <polyline points="21,10 21,11"/>
 <polyline points="21,10 22,10"/>
 <polyline points="21,11 22,11"/>
 <polyline points="21,10 21,11"/>
 <polyline points="22,11 23,11"/>
 <polyline points="23,10 23,11"/>
 <polyline points="23,10 23,11"/>
 <polyline points="24,10 25,10"/>
 <polyline points="25,10 25,11"/>
 <polyline points="0,11 0,12"/>
 <polyline points="1,11 1,12"/>
 <polyline points="1,11 1,12"/>
 <polyline points="2,11 2,12"/>
 <polyline points="2,11 3,11"/>
 <polyline points="2,11 2,12"/>
 <polyline points="3,11 4,11"/>
 <polyline points="4,12 5,12"/>
 <polyline points="5,12 6,12"/>
 <polyline points="6,11 6,12"/>
 <polyline points="6,12 7,12"/>
 <polyline points="6,11 6,12"/>
 <polyline points="7,11 7,12"/>
 <polyline points="7,11 8,11"/>
 <polyline points="7,11 7,12"/>
 <polyline points="8,11 8,12"/>
 <polyline points="8,12 9,12"/>
 <polyline points="8,11 8,12"/>
 <polyline points="9,11 9,12"/>
 <polyline points="9,11 9,12"/>
 <polyline points="10,11 10,12"/>
 <polyline points="10,12 11,12"/>
 <polyline points="10,11 10,12"/>
 <polyline points="11,11 11,12"/>
 <polyline points="11,12 12,12"/>
 <polyline points="11,11 11,12"/>
 <polyline points="12,11 13,11"/>
 <polyline points="13,11 13,12"/>
 <polyline points="13,11 14,11"/>
 <polyline points="13,11 13,12"/>
 <polyline points="14,11 14,12"/>
 <polyline points="14,11 15,11"/>
 <polyline points="14,11 14,12"/>
 <polyline points="15,11 16,11"/>
 <polyline points="16,11 16,12"/>
 <polyline points="16,12 17,12"/>
 <polyline points="16,11 16,12"/>
 <polyline points="17,11 17,12"/>
 <polyline points="17,11 18,11"/>
 <polyline points="17,11 17,12"/>
 <polyline points="18,11 18,12"/>
 <polyline points="18,11 19,11"/>
 <polyline points="18,11 18,12"/>
 <polyline points="19,11 19,12"/>
 <polyline points="19,11 20,11"/>
 <polyline points="19,11 19,12"/>
 <polyline points="20,11 20,12"/>
 <polyline points="20,11 20,12"/>
 <polyline points="21,11 22,11"/>
 <polyline points="21,12 22,12"/>
 <polyline points="22,11 23,11"/>
 <polyline points="22,12 23,12"/>
 <polyline points="23,11 23,12"/>
 <polyline points="23,11 23,12"/>
 <polyline points="24,11 24,12"/>
 <polyline points="24,12 25,12"/>
 <polyline points="24,11 24,12"/>
 <polyline points="25,11 25,12"/>
 <polyline points="0,12 0,13"/>
 <polyline points="1,12 1,13"/>
 <polyline points="1,13 2,13"/>
 <polyline points="1,12 1,13"/>
 <polyline points="2,12 2,13"/>
 <polyline points="2,12 2,13"/>
 <polyline points="3,12 3,13"/>
 <polyline points="3,13 4,13"/>
 <polyline points="3,12 3,13"/>
 <polyline points="4,12 5,12"/>
 <polyline points="5,12 5,13"/>
 <polyline points="5,12 6,12"/>
 <polyline points="5,13 6,13"/>
 <polyline points="5,12 5,13"/>
 <polyline points="6,12 7,12"/>
 <polyline points="7,12 7,13"/>
 <polyline points="7,12 7,13"/>
 <polyline points="8,12 9,12"/>
 <polyline points="8,13 9,13"/>
 <polyline points="10,12 10,13"/>
 <polyline points="10,12 11,12"/>
 <polyline points="10,12 10,13"/>
 <polyline points="11,12 11,13"/>
 <polyline points="11,12 12,12"/>
 <polyline points="11,13 12,13"/>
 <polyline points="11,12 11,13"/>
 <polyline points="14,12 14,13"/>
 <polyline points="14,12 14,13"/>
 <polyline points="15,12 15,13"/>
 <polyline points="15,12 15,13"/>
 <polyline points="16,12 17,12"/>
 <polyline points="16,13 17,13"/>
 <polyline points="18,12 18,13"/>
 <polyline points="18,13 19,13"/>
 <polyline points="18,12 18,13"/>
 <polyline points="20,13 21,13"/>
 <polyline points="21,12 22,12"/>
 <polyline points="22,12 22,13"/>
 <polyline points="22,12 23,12"/>
 <polyline points="22,12 22,13"/>
 <polyline points="23,12 23,13"/>
 <polyline points="23,13 24,13"/>
 <polyline points="23,12 23,13"/>
 <polyline points="24,12 25,12"/>
 <polyline points="25,12 25,13"/>
 <polyline points="0,14 1,14"/>
 <polyline points="0,13 0,14"/>
 <polyline points="1,13 1,14"/>
 <polyline points="1,13 2,13"/>
 <polyline points="1,14 2,14"/>
 <polyline points="1,13 1,14"/>
 <polyline points="2,14 3,14"/>
 <polyline points="3,13 3,14"/>
 <polyline points="3,13 4,13"/>
 <polyline points="3,13 3,14"/>
 <polyline points="4,14 5,14"/>
 <polyline points="5,13 6,13"/>
 <polyline points="5,14 6,14"/>
 <polyline points="6,13 6,14"/>
 <polyline points="6,13 6,14"/>
 <polyline points="7,13 7,14"/>
 <polyline points="7,13 7,14"/>
 <polyline points="8,13 8,14"/>
 <polyline points="8,13 9,13"/>
 <polyline points="8,13 8,14"/>
 <polyline points="9,14 10,14"/>
 <polyline points="11,13 12,13"/>
 <polyline points="11,14 12,14"/>
 <polyline points="12,14 13,14"/>
 <polyline points="13,13 13,14"/>
 <polyline points="13,14 14,14"/>
 <polyline points="13,13 13,14"/>
 <polyline points="15,13 15,14"/>
 <polyline points="15,14 16,14"/>
 <polyline points="15,13 15,14"/>
 <polyline points="16,13 16,14"/>
 <polyline points="16,13 17,13"/>
 <polyline points="16,13 16,14"/>
 <polyline points="17,14 18,14"/>
 <polyline points="18,13 19,13"/>
 <polyline points="18,14 19,14"/>
 <polyline points="19,13 19,14"/>
 <polyline points="19,13 19,14"/>
 <polyline points="20,13 20,14"/>
 <polyline points="20,13 21,13"/>
 <polyline points="20,14 21,14"/>
 <polyline points="20,13 20,14"/>
 <polyline points="21,14 22,14"/>
 <polyline points="23,13 24,13"/>
 <polyline points="24,13 24,14"/>
 <polyline points="24,14 25,14"/>
 <polyline points="24,13 24,14"/>
 <polyline points="25,13 25,14"/>
 <polyline points="0,14 1,14"/>
 <polyline points="0,14 0,15"/>
 <polyline points="1,14 2,14"/>
 <polyline points="1,15 2,15"/>
 <polyline points="2,14 3,14"/>
 <polyline points="2,15 3,15"/>
 <polyline points="4,14 5,14"/>
 <polyline points="4,15 5,15"/>
 <polyline points="5,14 6,14"/>
 <polyline points="6,14 6,15"/>
 <polyline points="6,14 6,15"/>
 <polyline points="8,14 8,15"/>
 <polyline points="8,15 9,15"/>
 <polyline points="8,14 8,15"/>
 <polyline points="9,14 10,14"/>
 <polyline points="10,14 10,15"/>
 <polyline points="10,15 11,15"/>
 <polyline points="10,14 10,15"/>
 <polyline points="11,14 12,14"/>
 <polyline points="11,15 12,15"/>
 <polyline points="12,14 13,14"/>
 <polyline points="12,15 13,15"/>
 <polyline points="13,14 14,14"/>
 <polyline points="13,15 14,15"/>
 <polyline points="14,14 14,15"/>
 <polyline points="14,15 15,15"/>
 <polyline points="14,14 14,15"/>
 <polyline points="15,14 15,15"/>
 <polyline points="15,14 16,14"/>
 <polyline points="15,14 15,15"/>
 <polyline points="16,15 17,15"/>
 <polyline points="17,14 18,14"/>
 <polyline points="18,14 19,14"/>
 <polyline points="18,15 19,15"/>
 <polyline points="19,14 19,15"/>
 <polyline points="19,14 19,15"/>
 <polyline points="20,14 20,15"/>
 <polyline points="20,14 21,14"/>
 <polyline points="20,14 20,15"/>
 <polyline points="21,14 22,14"/>
 <polyline points="21,15 22,15"/>
 <polyline points="22,14 22,15"/>
 <polyline points="22,15 23,15"/>
 <polyline points="22,14 22,15"/>
 <polyline points="23,14 23,15"/>
 <polyline points="23,15 24,15"/>
 <polyline points="23,14 23,15"/>
 <polyline points="24,14 25,14"/>
 <polyline points="25,14 25,15"/>
 <polyline points="0,16 1,16"/>
 <polyline points="0,15 0,16"/>
 <polyline points="1,15 1,16"/>
 <polyline points="1,15 2,15"/>
 <polyline points="1,15 1,16"/>
 <polyline points="2,15 2,16"/>
 <polyline points="2,15 3,15"/>
 <polyline points="2,16 3,16"/>
 <polyline points="2,15 2,16"/>
 <polyline points="3,16 4,16"/>
 <polyline points="4,15 5,15"/>
 <polyline points="5,15 5,16"/>
 <polyline points="5,15 5,16"/>
 <polyline points="6,15 6,16"/>
 <polyline points="6,15 6,16"/>
 <polyline points="7,15 7,16"/>
 <polyline points="7,15 7,16"/>
 <polyline points="8,15 8,16"/>
 <polyline points="8,15 9,15"/>
 <polyline points="8,15 8,16"/>
 <polyline points="9,15 9,16"/>
 <polyline points="9,16 10,16"/>
 <polyline points="9,15 9,16"/>
 <polyline points="10,15 11,15"/>
 <polyline points="11,15 11,16"/>
 <polyline points="11,15 12,15"/>
 <polyline points="11,15 11,16"/>
 <polyline points="12,15 12,16"/>
 <polyline points="12,15 13,15"/>
 <polyline points="12,15 12,16"/>
 <polyline points="13,15 13,16"/>
 <polyline points="13,15 14,15"/>
 <polyline points="13,15 13,16"/>
 <polyline points="14,15 15,15"/>
 <polyline points="15,16 16,16"/>
 <polyline points="16,15 16,16"/>
 <polyline points="16,15 17,15"/>
 <polyline points="16,16 17,16"/>
 <polyline points="16,15 16,16"/>
 <polyline points="18,15 18,16"/>
 <polyline points="18,15 19,15"/>
 <polyline points="18,15 18,16"/>
 <polyline points="19,15 19,16"/>
 <polyline points="19,16 20,16"/>
 <polyline points="19,15 19,16"/>
 <polyline points="20,15 20,16"/>
 <polyline points="20,15 20,16"/>
 <polyline points="21,15 21,16"/>
 <polyline points="21,15 22,15"/>
 <polyline points="21,15 21,16"/>
 <polyline points="22,15 22,16"/>
 <polyline points="22,15 23,15"/>
 <polyline points="22,16 23,16"/>
 <polyline points="22,15 22,16"/>
 <polyline points="23,15 24,15"/>
 <polyline points="24,15 24,16"/>
 <polyline points="24,16 25,16"/>
 <polyline points="24,15 24,16"/>
 <polyline points="25,15 25,16"/>
 <polyline points="0,16 1,16"/>
 <polyline points="0,17 1,17"/>
 <polyline points="0,16 0,17"/>
 <polyline points="2,16 2,17"/>
 <polyline points="2,16 3,16"/>
 <polyline points="2,16 2,17"/>
 <polyline points="3,16 4,16"/>
 <polyline points="3,17 4,17"/>
 <polyline points="4,16 4,17"/>
 <polyline points="4,16 4,17"/>
 <polyline points="5,16 5,17"/>
 <polyline points="5,16 5,17"/>
 <polyline points="6,16 6,17"/>
 <polyline points="6,17 7,17"/>
 <polyline points="6,16 6,17"/>
 <polyline points="7,16 7,17"/>
 <polyline points="7,17 8,17"/>
 <polyline points="7,16 7,17"/>
 <polyline points="8,17 9,17"/>
 <polyline points="9,16 10,16"/>
 <polyline points="10,16 10,17"/>
 <polyline points="10,17 11,17"/>
 <polyline points="10,16 10,17"/>
 <polyline points="11,17 12,17"/>
 <polyline points="12,17 13,17"/>
 <polyline points="13,16 13,17"/>
 <polyline points="13,17 14,17"/>
 <polyline points="13,16 13,17"/>
 <polyline points="14,16 14,17"/>
 <polyline points="14,17 15,17"/>
 <polyline points="14,16 14,17"/>
 <polyline points="15,16 16,16"/>
 <polyline points="16,16 17,16"/>
 <polyline points="16,17 17,17"/>
 <polyline points="17,16 17,17"/>
 <polyline points="17,16 17,17"/>
 <polyline points="18,17 19,17"/>
 <polyline points="19,16 19,17"/>
 <polyline points="19,16 20,16"/>
 <polyline points="19,16 19,17"/>
 <polyline points="22,16 23,16"/>
 <polyline points="23,16 23,17"/>
 <polyline points="23,16 23,17"/>
 <polyline points="24,16 24,17"/>
 <polyline points="24,16 25,16"/>
 <polyline points="24,16 24,17"/>
 <polyline points="25,16 25,17"/>
 <polyline points="0,17 1,17"/>
 <polyline points="0,18 1,18"/>
 <polyline points="0,17 0,18"/>
 <polyline points="2,18 3,18"/>
 <polyline points="3,17 4,17"/>
 <polyline points="3,18 4,18"/>
 <polyline points="5,17 5,18"/>
 <polyline points="5,17 5,18"/>
 <polyline points="6,17 7,17"/>
 <polyline points="6,18 7,18"/>
 <polyline points="7,17 7,18"/>
 <polyline points="7,17 8,17"/>
 <polyline points="7,17 7,18"/>
 <polyline points="8,17 8,18"/>
 <polyline points="8,17 9,17"/>
 <polyline points="8,18 9,18"/>
 <polyline points="8,17 8,18"/>
 <polyline points="10,17 10,18"/>
 <polyline points="10,17 11,17"/>
 <polyline points="10,18 11,18"/>
 <polyline points="10,17 10,18"/>
 <polyline points="11,17 12,17"/>
 <polyline points="12,17 12,18"/>
 <polyline points="12,17 13,17"/>
 <polyline points="12,17 12,18"/>
 <polyline points="13,17 14,17"/>
 <polyline points="13,18 14,18"/>
 <polyline points="14,17 15,17"/>
 <polyline points="16,17 16,18"/>
 <polyline points="16,17 17,17"/>
 <polyline points="16,17 16,18"/>
 <polyline points="17,17 17,18"/>
 <polyline points="17,17 17,18"/>
 <polyline points="18,17 18,18"/>
 <polyline points="18,17 19,17"/>
 <polyline points="18,17 18,18"/>
 <polyline points="20,17 20,18"/>
 <polyline points="20,17 20,18"/>
 <polyline points="21,17 21,18"/>
 <polyline points="21,18 22,18"/>
 <polyline points="21,17 21,18"/>
 <polyline points="22,17 22,18"/>
 <polyline points="22,17 22,18"/>
 <polyline points="23,18 24,18"/>
 <polyline points="25,17 25,18"/>
 <polyline points="0,18 1,18"/>
 <polyline points="0,19 1,19"/>
 <polyline points="0,18 0,19"/>
 <polyline points="1,19 2,19"/>
 <polyline points="2,18 2,19"/>
 <polyline points="2,18 3,18"/>
 <polyline points="2,18 2,19"/>
 <polyline points="3,18 3,19"/>
 <polyline points="3,18 4,18"/>
 <polyline points="3,18 3,19"/>
 <polyline points="4,19 5,19"/>
 <polyline points="5,18 5,19"/>
 <polyline points="5,18 5,19"/>
 <polyline points="6,18 6,19"/>
 <polyline points="6,18 7,18"/>
 <polyline points="6,18 6,19"/>
 <polyline points="7,18 7,19"/>
 <polyline points="7,18 7,19"/>
 <polyline points="8,18 9,18"/>
 <polyline points="8,19 9,19"/>
 <polyline points="9,18 9,19"/>
 <polyline points="9,18 9,19"/>
 <polyline points="10,18 11,18"/>
 <polyline points="10,19 11,19"/>
 <polyline points="11,18 11,19"/>
 <polyline points="11,18 11,19"/>
 <polyline points="12,19 13,19"/>
 <polyline points="13,18 13,19"/>
 <polyline points="13,18 14,18"/>
 <polyline points="13,19 14,19"/>
 <polyline points="13,18 13,19"/>
 <polyline points="15,18 15,19"/>
 <polyline points="15,18 15,19"/>
 <polyline points="16,19 17,19"/>
 <polyline points="17,18 17,19"/>
 <polyline points="17,18 17,19"/>
 <polyline points="18,18 18,19"/>
 <polyline points="18,19 19,19"/>
 <polyline points="18,18 18,19"/>
 <polyline points="19,18 19,19"/>
 <polyline points="19,18 19,19"/>
 <polyline points="20,18 20,19"/>
 <polyline points="20,18 20,19"/>
 <polyline points="21,18 21,19"/>
 <polyline points="21,18 22,18"/>
 <polyline points="21,18 21,19"/>
 <polyline points="22,18 22,19"/>
 <polyline points="22,18 22,19"/>
 <polyline points="23,18 24,18"/>
 <polyline points="23,19 24,19"/>
 <polyline points="24,18 24,19"/>
 <polyline points="24,18 24,19"/>
 <polyline points="25,18 25,19"/>
 <polyline points="0,19 1,19"/>
 <polyline points="0,19 0,20"/>
 <polyline points="1,19 2,19"/>
 <polyline points="1,20 2,20"/>
 <polyline points="2,19 2,20"/>
 <polyline points="2,19 2,20"/>
 <polyline points="3,19 3,20"/>
 <polyline points="3,19 3,20"/>
 <polyline points="4,19 4,20"/>
 <polyline points="4,19 5,19"/>
 <polyline points="4,20 5,20"/>
 <polyline points="4,19 4,20"/>
 <polyline points="6,19 6,20"/>
 <polyline points="6,19 6,20"/>
 <polyline points="7,20 8,20"/>
 <polyline points="8,19 9,19"/>
 <polyline points="9,20 10,20"/>
 <polyline points="10,19 10,20"/>
 <polyline points="10,19 11,19"/>
 <polyline points="10,20 11,20"/>
 <polyline points="10,19 10,20"/>
 <polyline points="11,20 12,20"/>
 <polyline points="12,19 12,20"/>
 <polyline points="12,19 13,19"/>
 <polyline points="12,19 12,20"/>
 <polyline points="13,19 14,19"/>
 <polyline points="13,20 14,20"/>
 <polyline points="14,20 15,20"/>
 <polyline points="15,19 15,20"/>
 <polyline points="15,20 16,20"/>
 <polyline points="15,19 15,20"/>
 <polyline points="16,19 16,20"/>
 <polyline points="16,19 17,19"/>
 <polyline points="16,19 16,20"/>
 <polyline points="17,19 17,20"/>
 <polyline points="17,19 17,20"/>
 <polyline points="18,19 19,19"/>
 <polyline points="20,19 20,20"/>
 <polyline points="20,19 20,20"/>
 <polyline points="21,19 21,20"/>
 <polyline points="21,20 22,20"/>
 <polyline points="21,19 21,20"/>
 <polyline points="23,19 24,19"/>
 <polyline points="24,19 24,20"/>
 <polyline points="24,20 25,20"/>
 <polyline points="24,19 24,20"/>
 <polyline points="25,19 25,20"/>
 <polyline points="0,20 0,21"/>
 <polyline points="1,20 2,20"/>
 <polyline points="1,21 2,21"/>
 <polyline points="2,21 3,21"/>
 <polyline points="3,21 4,21"/>
 <polyline points="4,20 5,20"/>
 <polyline points="5,20 5,21"/>
 <polyline points="5,21 6,21"/>
 <polyline points="5,20 5,21"/>
 <polyline points="6,20 6,21"/>
 <polyline points="6,20 6,21"/>
 <polyline points="7,20 7,21"/>
 <polyline points="7,20 8,20"/>
 <polyline points="7,20 7,21"/>
 <polyline points="8,20 8,21"/>
 <polyline points="8,21 9,21"/>
 <polyline points="8,20 8,21"/>
 <polyline points="9,20 9,21"/>
 <polyline points="9,20 10,20"/>
 <polyline points="9,20 9,21"/>
 <polyline points="10,20 10,21"/>
 <polyline points="10,20 11,20"/>
 <polyline points="10,20 10,21"/>
 <polyline points="11,20 11,21"/>
 <polyline points="11,20 12,20"/>
 <polyline points="11,20 11,21"/>
 <polyline points="12,20 12,21"/>
 <polyline points="12,21 13,21"/>
 <polyline points="12,20 12,21"/>
 <polyline points="13,20 13,21"/>
 <polyline points="13,20 14,20"/>
 <polyline points="13,21 14,21"/>
 <polyline points="13,20 13,21"/>
 <polyline points="14,20 15,20"/>
 <polyline points="15,20 16,20"/>
 <polyline points="15,21 16,21"/>
 <polyline points="16,21 17,21"/>
 <polyline points="17,20 17,21"/>
 <polyline points="17,20 17,21"/>
 <polyline points="18,20 18,21"/>
 <polyline points="18,21 19,21"/>
 <polyline points="18,20 18,21"/>
 <polyline points="19,20 19,21"/>
 <polyline points="19,20 19,21"/>
 <polyline points="20,20 20,21"/>
 <polyline points="20,21 21,21"/>
 <polyline points="20,20 20,21"/>
 <polyline points="21,20 21,21"/>
 <polyline points="21,20 22,20"/>
 <polyline points="21,21 22,21"/>
 <polyline points="21,20 21,21"/>
 <polyline points="23,20 23,21"/>
 <polyline points="23,21 24,21"/>
 <polyline points="23,20 23,21"/>
 <polyline points="24,20 25,20"/>
 <polyline points="25,20 25,21"/>
 <polyline points="0,22 1,22"/>
 <polyline points="0,21 0,22"/>
 <polyline points="1,21 1,22"/>
 <polyline points="1,21 2,21"/>
 <polyline points="1,21 1,22"/>
 <polyline points="2,21 2,22"/>
 <polyline points="2,21 3,21"/>
 <polyline points="2,21 2,22"/>
 <polyline points="3,21 3,22"/>
 <polyline points="3,21 4,21"/>
 <polyline points="3,21 3,22"/>
 <polyline points="4,21 4,22"/>
 <polyline points="4,21 4,22"/>
 <polyline points="5,21 5,22"/>
 <polyline points="5,21 6,21"/>
 <polyline points="5,21 5,22"/>
 <polyline points="8,21 9,21"/>
 <polyline points="9,22 10,22"/>
 <polyline points="10,21 10,22"/>
 <polyline points="10,22 11,22"/>
 <polyline points="10,21 10,22"/>
 <polyline points="12,21 13,21"/>
 <polyline points="13,21 14,21"/>
 <polyline points="14,21 14,22"/>
 <polyline points="14,22 15,22"/>
 <polyline points="14,21 14,22"/>
 <polyline points="15,21 16,21"/>
 <polyline points="15,22 16,22"/>
 <polyline points="16,21 17,21"/>
 <polyline points="17,21 17,22"/>
 <polyline points="17,21 17,22"/>
 <polyline points="18,21 19,21"/>
 <polyline points="18,22 19,22"/>
 <polyline points="19,21 19,22"/>
 <polyline points="19,22 20,22"/>
 <polyline points="19,21 19,22"/>
 <polyline points="20,21 21,21"/>
 <polyline points="21,21 22,21"/>
 <polyline points="21,22 22,22"/>
 <polyline points="22,21 22,22"/>
 <polyline points="22,22 23,22"/>
 <polyline points="22,21 22,22"/>
 <polyline points="23,21 23,22"/>
 <polyline points="23,21 24,21"/>
 <polyline points="23,21 23,22"/>
 <polyline points="24,22 25,22"/>
 <polyline points="25,21 25,22"/>
 <polyline points="0,22 1,22"/>
 <polyline points="0,23 1,23"/>
 <polyline points="0,22 0,23"/>
 <polyline points="3,23 4,23"/>
 <polyline points="4,22 4,23"/>
 <polyline points="4,22 4,23"/>
 <polyline points="5,22 5,23"/>
 <polyline points="5,23 6,23"/>
 <polyline points="5,22 5,23"/>
 <polyline points="6,22 6,23"/>
 <polyline points="6,23 7,23"/>
 <polyline points="6,22 6,23"/>
 <polyline points="7,22 7,23"/>
 <polyline points="7,23 8,23"/>
 <polyline points="7,22 7,23"/>
 <polyline points="8,22 8,23"/>
 <polyline points="8,23 9,23"/>
 <polyline points="8,22 8,23"/>
 <polyline points="9,22 10,22"/>
 <polyline points="10,22 11,22"/>
 <polyline points="11,22 11,23"/>
 <polyline points="11,23 12,23"/>
 <polyline points="11,22 11,23"/>
 <polyline points="12,22 12,23"/>
 <polyline points="12,22 12,23"/>
 <polyline points="13,22 13,23"/>
 <polyline points="13,23 14,23"/>
 <polyline points="13,22 13,23"/>
 <polyline points="14,22 14,23"/>
 <polyline points="14,22 15,22"/>
 <polyline points="14,22 14,23"/>
 <polyline points="15,22 16,22"/>
 <polyline points="16,23 17,23"/>
 <polyline points="18,22 19,22"/>
 <polyline points="19,22 19,23"/>
 <polyline points="19,22 20,22"/>
 <polyline points="19,22 19,23"/>
 <polyline points="21,22 22,22"/>
 <polyline points="21,23 22,23"/>
 <polyline points="22,22 23,22"/>
 <polyline points="23,22 23,23"/>
 <polyline points="23,22 23,23"/>
 <polyline points="24,22 25,22"/>
 <polyline points="24,23 25,23"/>
 <polyline points="25,22 25,23"/>
 <polyline points="0,23 1,23"/>
 <polyline points="0,23 0,24"/>
 <polyline points="2,23 2,24"/>
 <polyline points="2,23 2,24"/>
 <polyline points="3,23 4,23"/>
 <polyline points="4,24 5,24"/>
 <polyline points="5,23 6,23"/>
 <polyline points="5,24 6,24"/>
 <polyline points="6,23 6,24"/>
 <polyline points="6,23 7,23"/>
 <polyline points="6,23 6,24"/>
 <polyline points="7,23 7,24"/>
 <polyline points="7,23 8,23"/>
 <polyline points="7,23 7,24"/>
 <polyline points="8,23 9,23"/>
 <polyline points="9,24 10,24"/>
 <polyline points="10,23 10,24"/>
 <polyline points="10,24 11,24"/>
 <polyline points="10,23 10,24"/>
 <polyline points="11,23 11,24"/>
 <polyline points="11,23 12,23"/>
 <polyline points="11,23 11,24"/>
 <polyline points="13,23 14,23"/>
 <polyline points="13,24 14,24"/>
 <polyline points="14,24 15,24"/>
 <polyline points="15,23 15,24"/>
 <polyline points="15,23 15,24"/>
 <polyline points="16,23 17,23"/>
 <polyline points="16,24 17,24"/>
 <polyline points="17,23 17,24"/>
 <polyline points="17,23 17,24"/>
 <polyline points="18,23 18,24"/>
 <polyline points="18,24 19,24"/>
 <polyline points="18,23 18,24"/>
 <polyline points="19,23 19,24"/>
 <polyline points="19,24 20,24"/>
 <polyline points="19,23 19,24"/>
 <polyline points="20,23 20,24"/>
 <polyline points="20,23 20,24"/>
 <polyline points="21,23 21,24"/>
 <polyline points="21,23 22,23"/>
 <polyline points="21,24 22,24"/>
 <polyline points="21,23 21,24"/>
 <polyline points="22,24 23,24"/>
 <polyline points="23,23 23,24"/>
 <polyline points="23,23 23,24"/>
 <polyline points="24,23 25,23"/>
 <polyline points="24,24 25,24"/>
 <polyline points="25,23 25,24"/>
 <polyline points="0,25 1,25"/>
 <polyline points="0,24 0,25"/>
 <polyline points="1,24 1,25"/>
 <polyline points="1,25 2,25"/>
 <polyline points="1,24 1,25"/>
 <polyline points="2,24 2,25"/>
 <polyline points="2,25 3,25"/>
 <polyline points="2,24 2,25"/>
 <polyline points="3,24 3,25"/>
 <polyline points="3,25 4,25"/>
 <polyline points="3,24 3,25"/>
 <polyline points="4,24 4,25"/>
 <polyline points="4,24 5,24"/>
 <polyline points="4,25 5,25"/>
 <polyline points="4,24 4,25"/>
 <polyline points="5,24 6,24"/>
 <polyline points="5,25 6,25"/>
 <polyline points="6,25 7,25"/>
 <polyline points="7,25 8,25"/>
 <polyline points="8,24 8,25"/>
 <polyline points="8,25 9,25"/>
 <polyline points="8,24 8,25"/>
 <polyline points="9,24 10,24"/>
 <polyline points="9,25 10,25"/>
 <polyline points="10,24 10,25"/>
 <polyline points="10,24 11,24"/>
 <polyline points="10,25 11,25"/>
 <polyline points="10,24 10,25"/>
 <polyline points="11,25 12,25"/>
 <polyline points="12,24 12,25"/>
 <polyline points="12,25 13,25"/>
 <polyline points="12,24 12,25"/>
 <polyline points="13,24 14,24"/>
 <polyline points="13,25 14,25"/>
 <polyline points="14,24 15,24"/>
 <polyline points="14,25 15,25"/>
 <polyline points="15,24 15,25"/>
 <polyline points="15,25 16,25"/>
 <polyline points="15,24 15,25"/>
 <polyline points="16,24 16,25"/>
 <polyline points="16,24 17,24"/>
 <polyline points="16,24 16,25"/>
 <polyline points="17,25 18,25"/>
 <polyline points="18,24 19,24"/>
 <polyline points="18,25 19,25"/>
 <polyline points="19,24 19,25"/>
 <polyline points="19,24 20,24"/>
 <polyline points="19,25 20,25"/>
 <polyline points="19,24 19,25"/>
 <polyline points="20,25 21,25"/>
 <polyline points="21,24 22,24"/>
 <polyline points="21,25 22,25"/>
 <polyline points="22,24 23,24"/>
 <polyline points="22,25 23,25"/>
 <polyline points="23,24 23,25"/>
 <polyline points="23,25 24,25"/>
 <polyline points="23,24 23,25"/>
 <polyline points="24,24 25,24"/>
 <polyline points="24,25 25,25"/>
 <polyline points="25,24 25,25"/>

<circle cx="0.5" cy="7.5" r="0.2" stroke="red" fill="red" />
<circle cx="0.5" cy="6.5" r="0.2" stroke="red" fill="red" />
<circle cx="0.5" cy="5.5" r="0.2" stroke="red" fill="red" />
<circle cx="0.5" cy="4.5" r="0.2" stroke="red" fill="red" />
<circle cx="1.5" cy="4.5" r="0.2" stroke="red" fill="red" />
<circle cx="1.5" cy="3.5" r="0.2" stroke="red" fill="red" />
<circle cx="0.5" cy="3.5" r="0.2" stroke="red" fill="red" />
<circle cx="0.5" cy="2.5" r="0.2" stroke="red" fill="red" />
<circle cx="0.5" cy="1.5" r="0.2" stroke="red" fill="red" />
<circle cx="1.5" cy="1.5" r="0.2" stroke="red" fill="red" />
<circle cx="2.5" cy="1.5" r="0.2" stroke="red" fill="red" />
<circle cx="3.5" cy="1.5" r="0.2" stroke="red" fill="red" />
<circle cx="3.5" cy="2.5" r="0.2" stroke="red" fill="red" />
<circle cx="4.5" cy="2.5" r="0.2" stroke="red" fill="red" />
<circle cx="5.5" cy="2.5" r="0.2" stroke="red" fill="red" />
<circle cx="6.5" cy="2.5" r="0.2" stroke="red" fill="red" />
<circle cx="7.5" cy="2.5" r="0.2" stroke="red" fill="red" />
<circle cx="7.5" cy="1.5" r="0.2" stroke="red" fill="red" />
<circle cx="8.5" cy="1.5" r="0.2" stroke="red" fill="red" />
<circle cx="9.5" cy="1.5" r="0.2" stroke="red" fill="red" />
<circle cx="9.5" cy="0.5" r="0.2" stroke="red" fill="red" />
<circle cx="10.5" cy="0.5" r="0.2" stroke="red" fill="red" />
<circle cx="11.5" cy="0.5" r="0.2" stroke="red" fill="red" />
<circle cx="11.5" cy="1.5" r="0.2" stroke="red" fill="red" />
<circle cx="12.5" cy="1.5" r="0.2" stroke="red" fill="red" />
<circle cx="12.5" cy="2.5" r="0.2" stroke="red" fill="red" />
<circle cx="13.5" cy="2.5" r="0.2" stroke="red" fill="red" />
<circle cx="14.5" cy="2.5" r="0.2" stroke="red" fill="red" />
<circle cx="15.5" cy="2.5" r="0.2" stroke="red" fill="red" />
<circle cx="15.5" cy="1.5" r="0.2" stroke="red" fill="red" />
<circle cx="16.5" cy="1.5" r="0.2" stroke="red" fill="red" />
<circle cx="17.5" cy="1.5" r="0.2" stroke="red" fill="red" />
<circle cx="17.5" cy="2.5" r="0.2" stroke="red" fill="red" />
<circle cx="18.5" cy="2.5" r="0.2" stroke="red" fill="red" />
<circle cx="18.5" cy="3.5" r="0.2" stroke="red" fill="red" />
<circle cx="18.5" cy="4.5" r="0.2" stroke="red" fill="red" />
<circle cx="18.5" cy="5.5" r="0.2" stroke="red" fill="red" />
<circle cx="18.5" cy="6.5" r="0.2" stroke="red" fill="red" />
<circle cx="17.5" cy="6.5" r="0.2" stroke="red" fill="red" />
<circle cx="17.5" cy="7.5" r="0.2" stroke="red" fill="red" />
<circle cx="16.5" cy="7.5" r="0.2" stroke="red" fill="red" />
<circle cx="15.5" cy="7.5" r="0.2" stroke="red" fill="red" />
<circle cx="14.5" cy="7.5" r="0.2" stroke="red" fill="red" />
<circle cx="14.5" cy="8.5" r="0.2" stroke="red" fill="red" />
<circle cx="13.5" cy="8.5" r="0.2" stroke="red" fill="red" />
<circle cx="12.5" cy="8.5" r="0.2" stroke="red" fill="red" />
<circle cx="12.5" cy="9.5" r="0.2" stroke="red" fill="red" />
<circle cx="11.5" cy="9.5" r="0.2" stroke="red" fill="red" />
<circle cx="11.5" cy="10.5" r="0.2" stroke="red" fill="red" />
<circle cx="11.5" cy="11.5" r="0.2" stroke="red" fill="red" />
<circle cx="12.5" cy="11.5" r="0.2" stroke="red" fill="red" />
<circle cx="12.5" cy="12.5" r="0.2" stroke="red" fill="red" />
<circle cx="13.5" cy="12.5" r="0.2" stroke="red" fill="red" />
<circle cx="13.5" cy="13.5" r="0.2" stroke="red" fill="red" />
<circle cx="14.5" cy="13.5" r="0.2" stroke="red" fill="red" />
<circle cx="14.5" cy="12.5" r="0.2" stroke="red" fill="red" />
<circle cx="14.5" cy="11.5" r="0.2" stroke="red" fill="red" />
<circle cx="15.5" cy="11.5" r="0.2" stroke="red" fill="red" />
<circle cx="15.5" cy="12.5" r="0.2" stroke="red" fill="red" />
<circle cx="16.5" cy="12.5" r="0.2" stroke="red" fill="red" />
<circle cx="17.5" cy="12.5" r="0.2" stroke="red" fill="red" />
<circle cx="17.5" cy="13.5" r="0.2" stroke="red" fill="red" />
<circle cx="16.5" cy="13.5" r="0.2" stroke="red" fill="red" />
<circle cx="16.5" cy="14.5" r="0.2" stroke="red" fill="red" />
<circle cx="17.5" cy="14.5" r="0.2" stroke="red" fill="red" />
<circle cx="17.5" cy="15.5" r="0.2" stroke="red" fill="red" />
<circle cx="17.5" cy="16.5" r="0.2" stroke="red" fill="red" />
<circle cx="17.5" cy="17.5" r="0.2" stroke="red" fill="red" />
<circle cx="17.5" cy="18.5" r="0.2" stroke="red" fill="red" />
<circle cx="17.5" cy="19.5" r="0.2" stroke="red" fill="red" />
<circle cx="17.5" cy="20.5" r="0.2" stroke="red" fill="red" />
<circle cx="17.5" cy="21.5" r="0.2" stroke="red" fill="red" />
<circle cx="17.5" cy="22.5" r="0.2" stroke="red" fill="red" />
<circle cx="17.5" cy="23.5" r="0.2" stroke="red" fill="red" />
<circle cx="17.5" cy="24.5" r="0.2" stroke="red" fill="red" />
<circle cx="16.5" cy="24.5" r="0.2" stroke="red" fill="red" />
<circle cx="16.5" cy="24.5" r="0.2" stroke="red" fill="red" /></g>
</svg>
